<svg width="226" height="226" viewBox="0 0 226 226" fill="none" xmlns="http://www.w3.org/2000/svg">
<path fill-rule="evenodd" clip-rule="evenodd" d="M18.7778 31C12.2731 31 7 36.2447 7 42.7143C7 49.1839 12.2731 54.4286 18.7778 54.4286H207.222C213.727 54.4286 219 49.1839 219 42.7143C219 36.2447 213.727 31 207.222 31H18.7778ZM54.1111 113C54.1111 106.53 59.3843 101.286 65.8889 101.286H207.222C213.727 101.286 219 106.53 219 113C219 119.47 213.727 124.714 207.222 124.714H65.8889C59.3843 124.714 54.1111 119.47 54.1111 113ZM124.778 183.286C124.778 176.816 130.051 171.571 136.556 171.571H207.222C213.727 171.571 219 176.816 219 183.286C219 189.756 213.727 195 207.222 195H136.556C130.051 195 124.778 189.756 124.778 183.286Z" fill="#373A39"/>
</svg>
